<svg width="512" height="512" viewBox="0 0 512 512" fill="none" xmlns="http://www.w3.org/2000/svg">
  <!-- Fondo circular -->
  <circle cx="256" cy="256" r="248" fill="#f8fafc" stroke="#1d4ed8" stroke-width="16"/>
  
  <!-- Icono de carro -->
  <path d="M120 296C120 307.046 128.954 316 140 316C151.046 316 160 307.046 160 296C160 284.954 151.046 276 140 276C128.954 276 120 284.954 120 296Z" fill="#1d4ed8"/>
  <path d="M352 296C352 307.046 360.954 316 372 316C383.046 316 392 307.046 392 296C392 284.954 383.046 276 372 276C360.954 276 352 284.954 352 296Z" fill="#1d4ed8"/>
  <path d="M120 236H392V296C392 307.046 383.046 316 372 316C360.954 316 352 307.046 352 296H160C160 307.046 151.046 316 140 316C128.954 316 120 307.046 120 296V236Z" fill="#1d4ed8" />
  <path d="M392 236H120L149.962 149.538C152.934 140.902 161.109 135 170.242 135H341.758C350.891 135 359.066 140.902 362.038 149.538L392 236Z" fill="#1d4ed8" />
  
  <!-- Icono de llave -->
  <path d="M384 364C407.196 364 426 345.196 426 322C426 298.804 407.196 280 384 280C360.804 280 342 298.804 342 322C342 345.196 360.804 364 384 364Z" fill="#eab308"/>
  <path d="M368 364L368 401" stroke="#eab308" stroke-width="24" stroke-linecap="round"/>
  <path d="M390 388L346 388" stroke="#eab308" stroke-width="24" stroke-linecap="round"/>
  <path d="M368 401L342 427" stroke="#eab308" stroke-width="24" stroke-linecap="round"/>
</svg> 